<svg width="90" height="90" viewBox="0 0 90 90" fill="none" xmlns="http://www.w3.org/2000/svg">
<rect x="0.5" y="0.5" width="89" height="89" rx="44.5" stroke="black" stroke-dasharray="2 2"/>
<path d="M37.974 59.504C32.556 59.504 27.894 55.598 27.894 49.592V39.008C27.894 33.002 32.556 29.054 37.974 29.054C43.476 29.054 48.054 33.002 48.054 39.008V49.592C48.054 55.598 43.476 59.504 37.974 59.504ZM37.974 54.59C40.704 54.59 42.72 52.532 42.72 49.676V38.924C42.72 36.068 40.704 33.968 37.974 33.968C35.286 33.968 33.228 36.068 33.228 38.924V49.676C33.228 52.532 35.286 54.59 37.974 54.59ZM60.8985 59H55.5645V34.43H50.6925L52.8345 29.6H60.8985V59Z" fill="#2B2F38"/>
</svg>
