<svg width="90" height="90" viewBox="0 0 90 90" fill="none" xmlns="http://www.w3.org/2000/svg">
<rect x="0.5" y="0.5" width="89" height="89" rx="44.5" stroke="black" stroke-dasharray="2 2"/>
<path d="M33.474 59.504C28.056 59.504 23.394 55.598 23.394 49.592V39.008C23.394 33.002 28.056 29.054 33.474 29.054C38.976 29.054 43.554 33.002 43.554 39.008V49.592C43.554 55.598 38.976 59.504 33.474 59.504ZM33.474 54.59C36.204 54.59 38.22 52.532 38.22 49.676V38.924C38.22 36.068 36.204 33.968 33.474 33.968C30.786 33.968 28.728 36.068 28.728 38.924V49.676C28.728 52.532 30.786 54.59 33.474 54.59ZM62.5275 45.224L54.3375 54.17H66.7695V59H51.2295C48.8355 59 47.5755 57.866 47.5755 56.186C47.5755 55.136 47.7435 54.422 49.3395 52.658L58.4115 42.452C60.1335 40.562 60.9315 39.26 60.9315 37.664C60.9315 35.48 59.2935 33.884 56.9415 33.884C54.7155 33.884 52.9935 35.312 52.9935 37.832C52.9935 38.462 53.0775 38.924 53.2875 39.386L48.3735 40.856C48.0375 39.974 47.8275 38.966 47.8275 37.916C47.8275 32.498 51.7335 29.096 57.0255 29.096C62.4855 29.096 66.3075 32.498 66.3075 37.496C66.3075 40.1 65.2995 42.2 62.5275 45.224Z" fill="#2B2F38"/>
</svg>
