<svg width="90" height="90" viewBox="0 0 90 90" fill="none" xmlns="http://www.w3.org/2000/svg">
<rect width="90" height="90" rx="45" fill="url(#paint0_linear_1091_568)"/>
<path d="M33.474 59.504C28.056 59.504 23.394 55.598 23.394 49.592V39.008C23.394 33.002 28.056 29.054 33.474 29.054C38.976 29.054 43.554 33.002 43.554 39.008V49.592C43.554 55.598 38.976 59.504 33.474 59.504ZM33.474 54.59C36.204 54.59 38.22 52.532 38.22 49.676V38.924C38.22 36.068 36.204 33.968 33.474 33.968C30.786 33.968 28.728 36.068 28.728 38.924V49.676C28.728 52.532 30.786 54.59 33.474 54.59ZM64.0395 36.152L59.1255 41.318C64.1235 42.116 66.8535 45.518 66.8535 49.928C66.8535 56.06 62.2755 59.504 56.6475 59.504C51.5655 59.504 47.9115 56.732 46.7355 52.07L51.6915 50.6C52.3635 53.33 54.2535 54.758 56.7315 54.758C59.4615 54.758 61.6035 52.91 61.6035 49.928C61.6035 47.324 59.3355 45.392 56.3115 45.392H55.5555C53.9175 45.392 52.6995 44.006 52.6995 42.704C52.6995 41.78 53.0355 40.814 54.0855 39.848L59.4195 34.346H48.2895V29.6H61.4775C64.1235 29.6 65.6775 30.776 65.6775 32.876C65.6775 34.01 65.4255 34.766 64.0395 36.152Z" fill="#2B2F38"/>
<defs>
<linearGradient id="paint0_linear_1091_568" x1="-1.25728e-09" y1="-9.51545e-10" x2="100.163" y2="45.9722" gradientUnits="userSpaceOnUse">
<stop offset="0.172076" stop-color="#F3FFFD"/>
<stop offset="0.576692" stop-color="#4CFFE4"/>
<stop offset="1" stop-color="#7F92EE"/>
</linearGradient>
</defs>
</svg>
