<svg width="64" height="64" viewBox="0 0 64 64" fill="none" xmlns="http://www.w3.org/2000/svg">
<rect x="0.207642" y="0.279907" width="62.8262" height="62.8262" rx="13.5647" fill="#D9D9D9"/>
<rect x="0.207642" y="0.279907" width="62.8262" height="62.8262" rx="13.5647" fill="url(#paint0_linear_11_1681)"/>
<rect x="0.207642" y="0.279907" width="62.8262" height="62.8262" rx="13.5647" fill="#3CE1C8"/>
<g clip-path="url(#clip0_11_1681)">
<path d="M44.1889 34.0694C44.4863 33.3318 44.7175 32.5693 44.88 31.7908H46.648C47.217 31.7908 47.6784 31.3295 47.6784 30.7605V27.2581C47.6784 26.689 47.217 26.2277 46.648 26.2277H44.88C44.53 24.5508 43.8697 22.9881 42.9622 21.6016L44.2135 20.3502C44.6159 19.9479 44.6159 19.2954 44.2135 18.8931L41.7369 16.4165C41.3346 16.0142 40.6821 16.0142 40.2798 16.4165L39.0284 17.6678C37.6419 16.7603 36.0792 16.1001 34.4023 15.75V13.982C34.4023 13.413 33.941 12.9517 33.3719 12.9517H29.8695C29.3005 12.9517 28.8392 13.413 28.8392 13.982V15.75C27.1622 16.1001 25.5996 16.7603 24.213 17.6678L22.9617 16.4165C22.5593 16.0142 21.9069 16.0142 21.5045 16.4165L19.028 18.8931C18.6256 19.2954 18.6256 19.9479 19.028 20.3502L20.2793 21.6016C19.3718 22.9881 18.7115 24.5508 18.3615 26.2277H16.5935C16.0244 26.2277 15.5631 26.689 15.5631 27.2581V30.7605C15.5631 31.3295 16.0244 31.7908 16.5935 31.7908H18.3615C18.7115 33.4678 19.3718 35.0304 20.2793 36.417L19.028 37.6683C18.6256 38.0707 18.6256 38.7231 19.028 39.1255L21.5045 41.6021C21.9069 42.0044 22.5593 42.0044 22.9617 41.6021L24.213 40.3507C25.5996 41.2582 27.1622 41.9185 28.8392 42.2685V44.0365C28.8392 44.6056 29.3005 45.0669 29.8695 45.0669H33.3719C33.941 45.0669 34.4023 44.6056 34.4023 44.0365V42.2685C36.0792 41.9185 37.6419 41.2582 39.0284 40.3507L40.2798 41.6021C40.6821 42.0044 41.3346 42.0044 41.7369 41.6021L44.2135 39.1255C44.6159 38.7231 44.6159 38.0707 44.2135 37.6683L42.9622 36.417M33.2915 50.4344V45.067" stroke="black" stroke-width="1.13127" stroke-miterlimit="10" stroke-linecap="round" stroke-linejoin="round"/>
<path d="M37.2692 50.4342C37.8879 50.4342 38.3894 49.9327 38.3894 49.314C38.3894 48.6954 37.8879 48.1938 37.2692 48.1938C36.6506 48.1938 36.149 48.6954 36.149 49.314C36.149 49.9327 36.6506 50.4342 37.2692 50.4342Z" stroke="black" stroke-width="1.13127" stroke-miterlimit="10" stroke-linecap="round" stroke-linejoin="round"/>
<path d="M37.2694 48.1941V41.3237" stroke="black" stroke-width="1.13127" stroke-miterlimit="10" stroke-linecap="round" stroke-linejoin="round"/>
<path d="M29.9202 50.4342C30.5389 50.4342 31.0404 49.9327 31.0404 49.314C31.0404 48.6954 30.5389 48.1938 29.9202 48.1938C29.3016 48.1938 28.8 48.6954 28.8 49.314C28.8 49.9327 29.3016 50.4342 29.9202 50.4342Z" stroke="black" stroke-width="1.13127" stroke-miterlimit="10" stroke-linecap="round" stroke-linejoin="round"/>
<path d="M29.9202 48.1943V45.0671" stroke="black" stroke-width="1.13127" stroke-miterlimit="10" stroke-linecap="round" stroke-linejoin="round"/>
<path d="M21.8061 50.4342C22.4248 50.4342 22.9263 49.9327 22.9263 49.314C22.9263 48.6954 22.4248 48.1938 21.8061 48.1938C21.1874 48.1938 20.6859 48.6954 20.6859 49.314C20.6859 49.9327 21.1874 50.4342 21.8061 50.4342Z" stroke="black" stroke-width="1.13127" stroke-miterlimit="10" stroke-linecap="round" stroke-linejoin="round"/>
<path d="M26.0934 41.3784V49.3141H22.9263" stroke="black" stroke-width="1.13127" stroke-miterlimit="10" stroke-linecap="round" stroke-linejoin="round"/>
<path d="M17.6854 46.9865C18.304 46.9865 18.8056 46.4849 18.8056 45.8663C18.8056 45.2476 18.304 44.7461 17.6854 44.7461C17.0667 44.7461 16.5652 45.2476 16.5652 45.8663C16.5652 46.4849 17.0667 46.9865 17.6854 46.9865Z" stroke="black" stroke-width="1.13127" stroke-miterlimit="10" stroke-linecap="round" stroke-linejoin="round"/>
<path d="M22.5699 41.8481V45.8663H18.8055" stroke="black" stroke-width="1.13127" stroke-miterlimit="10" stroke-linecap="round" stroke-linejoin="round"/>
<path d="M45.5561 46.9865C46.1748 46.9865 46.6763 46.4849 46.6763 45.8663C46.6763 45.2476 46.1748 44.7461 45.5561 44.7461C44.9374 44.7461 44.4359 45.2476 44.4359 45.8663C44.4359 46.4849 44.9374 46.9865 45.5561 46.9865Z" stroke="black" stroke-width="1.13127" stroke-miterlimit="10" stroke-linecap="round" stroke-linejoin="round"/>
<path d="M40.6715 41.8481V45.8662H44.4359M26.0953 27.6661C26.6988 25.1746 28.9437 23.3242 31.6207 23.3242C34.7604 23.3242 37.3057 25.8695 37.3057 29.0092C37.3057 32.149 34.7604 34.6942 31.6207 34.6942C28.9365 34.6942 26.6868 32.834 26.0905 30.3323" stroke="black" stroke-width="1.13127" stroke-miterlimit="10" stroke-linecap="round" stroke-linejoin="round"/>
<path d="M29.5492 38.7476C25.0457 37.7944 21.6666 33.7962 21.6666 29.0092C21.6666 24.2222 25.0457 20.2241 29.5492 19.2709M33.6922 19.2709C38.1956 20.2241 41.5747 24.2222 41.5747 29.0092C41.5747 33.7962 38.1956 37.7944 33.6922 38.7476" stroke="black" stroke-width="1.13127" stroke-miterlimit="10" stroke-linecap="round" stroke-linejoin="round"/>
<path d="M28.9974 29.1685L30.5295 30.8666L34.2439 27.1522M34.6555 21.1522L33.6922 19.271L35.5733 18.3077M27.5378 39.3967L29.5492 38.7477L28.9001 36.7364" stroke="black" stroke-width="1.13127" stroke-miterlimit="10" stroke-linecap="round" stroke-linejoin="round"/>
</g>
<defs>
<linearGradient id="paint0_linear_11_1681" x1="0.207642" y1="0.279907" x2="70.128" y2="32.3717" gradientUnits="userSpaceOnUse">
<stop offset="0.172076" stop-color="#3CE1C8"/>
<stop offset="0.576692" stop-color="#4CFFE4"/>
<stop offset="1" stop-color="#7F92EE"/>
</linearGradient>
<clipPath id="clip0_11_1681">
<rect width="38.614" height="38.614" fill="white" transform="translate(12.3137 12.386)"/>
</clipPath>
</defs>
</svg>
