<svg width="64" height="64" viewBox="0 0 64 64" fill="none" xmlns="http://www.w3.org/2000/svg">
<rect x="0.819397" y="0.279907" width="62.8262" height="62.8262" rx="13.5647" fill="#D9D9D9"/>
<rect x="0.819397" y="0.279907" width="62.8262" height="62.8262" rx="13.5647" fill="url(#paint0_linear_11_1676)"/>
<rect x="0.819397" y="0.279907" width="62.8262" height="62.8262" rx="13.5647" fill="#3CE1C8"/>
<path fill-rule="evenodd" clip-rule="evenodd" d="M28.9166 48.1881C28.8779 48.38 28.908 48.5793 29.0016 48.7512C29.0952 48.9231 29.2464 49.0565 29.4285 49.128C29.6107 49.1996 29.8122 49.2047 29.9978 49.1425C30.1834 49.0803 30.3411 48.9547 30.4433 48.7878L43.7701 27.1318C43.8478 27.0056 43.8903 26.861 43.8934 26.7128C43.8965 26.5646 43.86 26.4183 43.7877 26.2889C43.7154 26.1596 43.6099 26.0519 43.482 25.9769C43.3542 25.9019 43.2086 25.8624 43.0604 25.8625H33.1928L34.7229 15.1519C34.7496 14.9618 34.7098 14.7682 34.6103 14.604C34.5107 14.4398 34.3574 14.3151 34.1765 14.2509C33.9955 14.1867 33.7979 14.187 33.6171 14.2518C33.4363 14.3166 33.2835 14.4418 33.1845 14.6064L20.6906 35.4294C20.6141 35.5556 20.5726 35.7 20.5703 35.8476C20.5681 35.9952 20.6053 36.1407 20.678 36.2691C20.7507 36.3976 20.8563 36.5043 20.984 36.5784C21.1117 36.6525 21.2568 36.6911 21.4044 36.6905H31.2163L28.9166 48.1881ZM31.4628 43.9519L33.0495 36.0208C33.0732 35.9 33.0699 35.7754 33.0399 35.6561C33.0098 35.5367 32.9537 35.4254 32.8757 35.3302C32.7976 35.235 32.6994 35.1583 32.5882 35.1055C32.477 35.0526 32.3556 35.025 32.2324 35.0246H22.8754L32.4906 19L31.4079 26.578C31.3909 26.6961 31.3995 26.8165 31.4332 26.931C31.4669 27.0455 31.5248 27.1514 31.603 27.2415C31.6812 27.3317 31.7779 27.404 31.8865 27.4534C31.9951 27.5029 32.1131 27.5285 32.2324 27.5283H41.5695L31.4628 43.9519Z" fill="black"/>
<defs>
<linearGradient id="paint0_linear_11_1676" x1="0.819397" y1="0.279907" x2="70.7397" y2="32.3717" gradientUnits="userSpaceOnUse">
<stop offset="0.172076" stop-color="#3CE1C8"/>
<stop offset="0.576692" stop-color="#4CFFE4"/>
<stop offset="1" stop-color="#7F92EE"/>
</linearGradient>
</defs>
</svg>
