<svg width="64" height="64" viewBox="0 0 64 64" fill="none" xmlns="http://www.w3.org/2000/svg">
<rect x="0.819336" y="0.279907" width="62.8262" height="62.8262" rx="13.5647" fill="#D9D9D9"/>
<rect x="0.819336" y="0.279907" width="62.8262" height="62.8262" rx="13.5647" fill="url(#paint0_linear_11_1738)"/>
<rect x="0.819336" y="0.279907" width="62.8262" height="62.8262" rx="13.5647" fill="#3CE1C8"/>
<g clip-path="url(#clip0_11_1738)">
<path d="M45.9806 22.9096L35.9839 12.913C35.9142 12.8432 35.8314 12.7879 35.7403 12.7502C35.6491 12.7124 35.5515 12.693 35.4528 12.693H21.3666C19.656 12.693 18.2643 14.0847 18.2643 15.7953V47.5906C18.2643 49.3013 19.656 50.693 21.3666 50.693H43.0982C44.8088 50.693 46.2005 49.3013 46.2005 47.5906V23.4407C46.2005 23.2415 46.1214 23.0505 45.9806 22.9096ZM36.2039 15.2572L43.6364 22.6895H37.8041C36.9218 22.6895 36.204 21.9717 36.204 21.0892V15.2572H36.2039ZM44.6985 47.5906C44.6985 48.473 43.9806 49.191 43.0982 49.191H21.3666C20.4842 49.191 19.7663 48.473 19.7663 47.5906V15.7953C19.7663 14.913 20.4842 14.195 21.3666 14.195H34.7018V21.0894C34.7018 22.8 36.0934 24.1917 37.8041 24.1917H44.6985V47.5906Z" fill="black"/>
<path d="M38.2403 31.7681H26.2244C25.8097 31.7681 25.4734 32.1044 25.4734 32.5191C25.4734 32.9338 25.8097 33.2701 26.2244 33.2701H38.2403C38.6552 33.2701 38.9913 32.9338 38.9913 32.5191C38.9913 32.1044 38.6552 31.7681 38.2403 31.7681ZM38.2403 35.1225H26.2244C25.8097 35.1225 25.4734 35.4587 25.4734 35.8735C25.4734 36.2882 25.8097 36.6245 26.2244 36.6245H38.2403C38.6552 36.6245 38.9913 36.2882 38.9913 35.8735C38.9913 35.4587 38.6552 35.1225 38.2403 35.1225ZM38.2403 38.4768H26.2244C25.8097 38.4768 25.4734 38.8131 25.4734 39.2279C25.4734 39.6426 25.8097 39.9789 26.2244 39.9789H38.2403C38.6552 39.9789 38.9913 39.6426 38.9913 39.2279C38.9913 38.8131 38.6552 38.4768 38.2403 38.4768ZM34.3351 41.8313H26.2244C25.8097 41.8313 25.4734 42.1676 25.4734 42.5823C25.4734 42.9971 25.8097 43.3334 26.2244 43.3334H34.3351C34.75 43.3334 35.0861 42.9971 35.0861 42.5823C35.0861 42.1676 34.75 41.8313 34.3351 41.8313Z" fill="black"/>
</g>
<defs>
<linearGradient id="paint0_linear_11_1738" x1="0.819336" y1="0.279907" x2="70.7397" y2="32.3717" gradientUnits="userSpaceOnUse">
<stop offset="0.172076" stop-color="#3CE1C8"/>
<stop offset="0.576692" stop-color="#4CFFE4"/>
<stop offset="1" stop-color="#7F92EE"/>
</linearGradient>
<clipPath id="clip0_11_1738">
<rect width="38" height="38" fill="white" transform="translate(13.2324 12.693)"/>
</clipPath>
</defs>
</svg>
