<svg width="159" height="33" viewBox="0 0 159 33" fill="none" xmlns="http://www.w3.org/2000/svg">
<path d="M12.8111 26.7434C10.3341 26.7434 8.18592 26.2152 6.36638 25.1587C4.55858 24.1022 3.16165 22.5937 2.17558 20.6333C1.20125 18.6612 0.714079 16.3134 0.714079 13.5899V13.5723C0.714079 10.8372 1.20711 8.49525 2.19319 6.54658C3.17926 4.58618 4.57619 3.08359 6.38399 2.03883C8.19179 0.982321 10.3341 0.454069 12.8111 0.454069C14.8654 0.454069 16.6967 0.853193 18.3049 1.65144C19.9131 2.44969 21.2044 3.54728 22.1787 4.94421C23.1531 6.32941 23.7224 7.92591 23.8868 9.7337L23.9044 9.89218H18.7275L18.6571 9.59284C18.4575 8.65372 18.0995 7.83786 17.5829 7.14527C17.0664 6.45267 16.4032 5.91855 15.5932 5.5429C14.7949 5.15552 13.8676 4.96182 12.8111 4.96182C11.4493 4.96182 10.2696 5.30812 9.27177 6.00072C8.27396 6.69332 7.49919 7.68526 6.94746 8.97654C6.40747 10.2561 6.13747 11.7821 6.13747 13.5547V13.5723C6.13747 15.3567 6.40747 16.9003 6.94746 18.2034C7.49919 19.4946 8.27396 20.4924 9.27177 21.1968C10.2813 21.8894 11.4611 22.2357 12.8111 22.2357C13.8323 22.2357 14.7421 22.0479 15.5404 21.6722C16.3504 21.2966 17.0253 20.7566 17.5653 20.0522C18.1053 19.3362 18.4868 18.4733 18.7099 17.4638L18.7451 17.2877H23.922L23.9044 17.4814C23.74 19.2775 23.1648 20.874 22.1787 22.2709C21.2044 23.6678 19.9131 24.7654 18.3049 25.5637C16.6967 26.3502 14.8654 26.7434 12.8111 26.7434ZM35.4379 26.6906C33.5244 26.6906 31.8692 26.2974 30.4723 25.5108C29.0754 24.7243 27.9954 23.5974 27.2324 22.13C26.4693 20.6627 26.0878 18.9077 26.0878 16.8651V16.8299C26.0878 14.7991 26.4752 13.0558 27.25 11.6002C28.0247 10.1328 29.1106 9.00589 30.5075 8.21938C31.9045 7.43287 33.542 7.03962 35.4203 7.03962C37.3102 7.03962 38.9537 7.43287 40.3506 8.21938C41.7593 8.99415 42.851 10.1152 43.6258 11.5826C44.4006 13.0382 44.7879 14.7873 44.7879 16.8299V16.8651C44.7879 18.9194 44.4006 20.6803 43.6258 22.1476C42.8628 23.615 41.7828 24.7419 40.3858 25.5285C38.9889 26.3032 37.3396 26.6906 35.4379 26.6906ZM35.4555 22.6583C36.2889 22.6583 37.0109 22.4352 37.6213 21.9892C38.2435 21.5313 38.7189 20.874 39.0476 20.017C39.388 19.1483 39.5582 18.0977 39.5582 16.8651V16.8299C39.5582 15.609 39.388 14.5701 39.0476 13.7132C38.7072 12.8563 38.2259 12.2048 37.6037 11.7587C36.9815 11.3009 36.2537 11.0719 35.4203 11.0719C34.5985 11.0719 33.8766 11.3009 33.2544 11.7587C32.644 12.2048 32.1686 12.8563 31.8281 13.7132C31.4877 14.5701 31.3175 15.609 31.3175 16.8299V16.8651C31.3175 18.0977 31.4818 19.1483 31.8105 20.017C32.151 20.874 32.6323 21.5313 33.2544 21.9892C33.8766 22.4352 34.6103 22.6583 35.4555 22.6583ZM47.4468 26.3032V7.427H52.5885V10.5965H52.6941C53.0815 9.51653 53.7389 8.65372 54.6663 8.00808C55.6054 7.36244 56.7088 7.03962 57.9766 7.03962C58.8571 7.03962 59.6494 7.19222 60.3538 7.49744C61.0581 7.80265 61.6509 8.24286 62.1322 8.81807C62.6253 9.39327 62.9716 10.0976 63.1711 10.9311H63.2768C63.5585 10.1328 63.9811 9.4461 64.5446 8.87089C65.1198 8.28394 65.7948 7.83199 66.5696 7.51504C67.3561 7.19809 68.213 7.03962 69.1404 7.03962C70.373 7.03962 71.453 7.30374 72.3803 7.83199C73.3077 8.36025 74.0297 9.0998 74.5462 10.0507C75.0627 11.0015 75.3209 12.1167 75.3209 13.3963V26.3032H70.1793V14.6817C70.1793 13.9539 70.056 13.3376 69.8095 12.8328C69.5747 12.328 69.2284 11.9465 68.7706 11.6882C68.3245 11.43 67.7669 11.3009 67.0978 11.3009C66.4522 11.3009 65.8828 11.4476 65.3898 11.7411C64.9085 12.0345 64.5328 12.4454 64.2628 12.9737C63.9929 13.5019 63.8579 14.1182 63.8579 14.8225V26.3032H58.9099V14.5232C58.9099 13.8423 58.7866 13.2613 58.5401 12.78C58.2936 12.2987 57.9414 11.9348 57.4836 11.6882C57.0375 11.43 56.4975 11.3009 55.8636 11.3009C55.218 11.3009 54.6487 11.4535 54.1556 11.7587C53.6626 12.0639 53.2752 12.4865 52.9935 13.0265C52.7235 13.5665 52.5885 14.1945 52.5885 14.9106V26.3032H47.4468ZM78.5785 32.4662V7.427H83.7201V10.7198H83.8434C84.1838 9.95674 84.6299 9.29936 85.1816 8.74763C85.7451 8.1959 86.3966 7.7733 87.1362 7.47983C87.8875 7.18635 88.7092 7.03962 89.6014 7.03962C91.1979 7.03962 92.5713 7.43287 93.7217 8.21938C94.8721 8.99415 95.7584 10.1152 96.3806 11.5826C97.0028 13.05 97.3138 14.8049 97.3138 16.8475V16.8651C97.3138 18.9077 97.0028 20.6627 96.3806 22.13C95.7702 23.5974 94.8956 24.7243 93.7569 25.5108C92.6183 26.2974 91.2566 26.6906 89.6718 26.6906C88.7796 26.6906 87.952 26.5439 87.189 26.2504C86.426 25.9569 85.7627 25.5461 85.1993 25.0178C84.6358 24.4778 84.178 23.8322 83.8258 23.0809H83.7201V32.4662H78.5785ZM87.911 22.4294C88.7679 22.4294 89.5074 22.2063 90.1296 21.7603C90.7518 21.3024 91.2331 20.6568 91.5735 19.8233C91.9139 18.9899 92.0841 18.0038 92.0841 16.8651V16.8475C92.0841 15.6971 91.9139 14.7051 91.5735 13.8717C91.2331 13.0382 90.7459 12.4043 90.112 11.97C89.4898 11.5239 88.7562 11.3009 87.911 11.3009C87.0775 11.3009 86.3438 11.5298 85.7099 11.9876C85.076 12.4337 84.583 13.0734 84.2308 13.9069C83.8786 14.7286 83.7025 15.7147 83.7025 16.8651V16.8827C83.7025 18.0097 83.8786 18.9899 84.2308 19.8233C84.5947 20.6568 85.0877 21.3024 85.7099 21.7603C86.3438 22.2063 87.0775 22.4294 87.911 22.4294ZM105.607 26.6026C104.351 26.6026 103.248 26.3619 102.297 25.8806C101.346 25.3876 100.601 24.7126 100.061 23.8557C99.5325 22.987 99.2684 22.0009 99.2684 20.8974V20.8622C99.2684 19.7118 99.556 18.7316 100.131 17.9216C100.706 17.0999 101.54 16.4542 102.632 15.9847C103.723 15.5151 105.05 15.2275 106.611 15.1219L113.971 14.6641V17.8688L107.386 18.2914C106.4 18.3501 105.648 18.5849 105.132 18.9957C104.615 19.3949 104.357 19.929 104.357 20.5981V20.6333C104.357 21.3259 104.621 21.8718 105.15 22.2709C105.678 22.6583 106.388 22.852 107.28 22.852C108.043 22.852 108.724 22.7052 109.323 22.4118C109.933 22.1066 110.409 21.6957 110.749 21.1792C111.101 20.6509 111.277 20.0581 111.277 19.4007V13.678C111.277 12.8445 111.013 12.1871 110.485 11.7058C109.957 11.2128 109.188 10.9663 108.178 10.9663C107.216 10.9663 106.453 11.1659 105.889 11.565C105.326 11.9641 104.979 12.4689 104.85 13.0793L104.815 13.2378H100.114L100.131 13.0265C100.225 11.8643 100.607 10.8313 101.276 9.9274C101.957 9.0235 102.896 8.31916 104.093 7.81439C105.302 7.29787 106.734 7.03962 108.39 7.03962C110.021 7.03962 111.436 7.30374 112.633 7.83199C113.831 8.34851 114.758 9.08219 115.415 10.033C116.084 10.9839 116.419 12.0932 116.419 13.361V26.3032H111.277V23.4859H111.172C110.819 24.1315 110.362 24.6891 109.798 25.1587C109.246 25.6165 108.618 25.9745 107.914 26.2328C107.21 26.4793 106.441 26.6026 105.607 26.6026ZM119.747 26.3032V7.427H124.889V10.5261H124.994C125.487 9.4461 126.215 8.59503 127.178 7.97286C128.14 7.3507 129.332 7.03962 130.752 7.03962C132.83 7.03962 134.432 7.66765 135.559 8.92372C136.698 10.168 137.267 11.8995 137.267 14.1182V26.3032H132.126V15.1747C132.126 13.9421 131.832 12.9913 131.245 12.3221C130.67 11.6413 129.807 11.3009 128.657 11.3009C127.894 11.3009 127.231 11.4769 126.667 11.8291C126.104 12.1695 125.663 12.6508 125.346 13.273C125.041 13.8952 124.889 14.623 124.889 15.4564V26.3032H119.747ZM143.377 32.519C142.873 32.519 142.386 32.4955 141.916 32.4486C141.446 32.4016 141.059 32.3488 140.754 32.2901V28.4691C140.942 28.5043 141.182 28.5395 141.476 28.5747C141.769 28.6217 142.104 28.6451 142.479 28.6451C143.254 28.6451 143.865 28.516 144.311 28.2578C144.757 27.9995 145.091 27.5534 145.314 26.9195L145.543 26.3032L138.87 7.427H144.522L148.783 23.2041L148.097 22.1829H149.065L148.378 23.2041L152.639 7.427H158.063L151.583 26.6378C151.09 28.1169 150.468 29.2849 149.716 30.1419C148.977 30.9988 148.085 31.6092 147.04 31.9731C145.995 32.337 144.774 32.519 143.377 32.519Z" fill="white" fill-opacity="0.2"/>
</svg>
