<svg width="39" height="40" viewBox="0 0 39 40" fill="none" xmlns="http://www.w3.org/2000/svg">
<g clip-path="url(#clip0_62_215)">
<path fill-rule="evenodd" clip-rule="evenodd" d="M1.60596 33.4582V13.2507C1.60596 12.6795 2.06906 12.2144 2.64022 12.2144H9.82043V9.3585C9.82043 7.11019 11.6508 5.27979 13.8991 5.27979H20.0731C22.3191 5.27979 24.1497 7.11011 24.1497 9.3585V12.2144H31.3319C31.8989 12.2144 32.3661 12.6795 32.3661 13.2507V18.5258L34.6525 14.5658C35.2593 13.5147 36.6161 13.1511 37.6671 13.7579C38.7182 14.3648 39.0817 15.7216 38.475 16.7726L32.3661 27.3533V33.4582C32.3661 34.03 31.8995 34.4925 31.3319 34.4925H2.64022C2.06845 34.4925 1.60596 34.03 1.60596 33.4582ZM10.891 12.2144H11.6762V9.3585C11.6762 8.13489 12.6755 7.13565 13.8991 7.13565H20.0731C21.2942 7.13565 22.2939 8.13466 22.2939 9.3585V12.2144H23.0791V9.3585C23.0791 7.70039 21.7294 6.35037 20.0731 6.35037H13.8991C12.2409 6.35037 10.891 7.70031 10.891 9.3585V12.2144ZM12.7468 12.2144H21.2233V9.3585C21.2233 8.7244 20.7058 8.20624 20.0731 8.20624H13.8991C13.2647 8.20624 12.7468 8.72417 12.7468 9.3585V12.2144ZM31.2955 16.7456V13.285H2.67655V16.7456L12.7642 20.8916C12.7684 20.8688 12.7727 20.846 12.7771 20.8234C13.165 18.8534 14.9022 17.3663 16.9866 17.3663C19.0697 17.3663 20.8067 18.853 21.1949 20.8226C21.1993 20.8453 21.2036 20.8681 21.2077 20.891L31.2955 16.7456ZM31.2955 20.3801V17.9031L21.2632 22.0256C21.2062 22.8254 20.9629 23.3164 20.6641 23.7971C20.285 24.407 19.791 24.9951 19.6009 26.5014C19.9664 26.6961 20.2165 27.0816 20.2165 27.5226V28.8624C20.2165 29.4969 19.6965 30.0178 19.0602 30.0178H18.9582V30.1054C18.9582 30.7209 18.4527 31.2263 17.8372 31.2263H16.1348C15.5195 31.2263 15.0139 30.7209 15.0139 30.1054V30.0178H14.9119C14.2756 30.0178 13.7555 29.4969 13.7555 28.8624V27.5226C13.7555 27.0816 14.0057 26.6961 14.3713 26.5014C14.181 24.9951 13.6872 24.407 13.3079 23.7971C13.0093 23.3165 12.7661 22.8257 12.709 22.0263L2.67655 17.9031V33.4219H31.2955V28.6242L28.5751 30.6341C28.4925 30.6952 28.3941 30.7312 28.2916 30.7378C28.1891 30.7445 28.0869 30.7215 27.9971 30.6716C27.9073 30.6217 27.8338 30.5471 27.7852 30.4566C27.7367 30.3661 27.7153 30.2635 27.7234 30.1611L28.0463 26.1118C28.0526 26.0325 28.0765 25.9556 28.1163 25.8867L31.2955 20.3801ZM31.2926 27.0716L36.6113 17.8594L34.6431 16.7232L29.3245 25.9353L31.2926 27.0716ZM37.1466 16.9323L37.5477 16.2373C37.8602 15.6961 37.673 14.9976 37.1318 14.6851C36.5906 14.3727 35.8921 14.5599 35.5796 15.1011L35.1784 15.7959L37.1466 16.9323ZM29.0485 27.0122L28.884 29.0748L30.5233 27.8637L29.0485 27.0122ZM18.5382 26.3663C18.7182 24.9178 19.1383 24.1945 19.5268 23.5881C19.8734 23.0469 20.2053 22.627 20.2053 21.6557C20.2053 21.4415 20.1844 21.2322 20.1445 21.0296C19.8532 19.5518 18.5495 18.4369 16.9866 18.4369C15.4226 18.4369 14.1186 19.552 13.8275 21.0302C13.787 21.2363 13.7667 21.4457 13.7668 21.6557C13.7668 22.627 14.0987 23.0469 14.4454 23.5881C14.8338 24.1945 15.254 24.9178 15.4338 26.3663H16.4513V22.6642L15.1083 21.8887C14.9854 21.8176 14.8958 21.7007 14.8591 21.5635C14.8223 21.4264 14.8415 21.2803 14.9125 21.1574C14.9835 21.0345 15.1004 20.9448 15.2376 20.9081C15.3747 20.8714 15.5208 20.8906 15.6437 20.9615L16.9865 21.737L18.3282 20.9616C18.4512 20.8906 18.5972 20.8714 18.7344 20.9081C18.8715 20.9447 18.9884 21.0344 19.0595 21.1572C19.1305 21.2802 19.1498 21.4263 19.1131 21.5634C19.0764 21.7005 18.9868 21.8175 18.8639 21.8886L17.5219 22.6642V26.3663H18.5382ZM14.0835 16.3276C14.1545 16.4506 14.1738 16.5967 14.1371 16.7338C14.1004 16.8709 14.0107 16.9879 13.8878 17.0589C13.7649 17.1299 13.6188 17.1491 13.4817 17.1125C13.3445 17.0758 13.2276 16.9861 13.1565 16.8632L12.5527 15.8183C12.4049 15.5625 12.4926 15.2348 12.7484 15.087C13.0042 14.9392 13.3319 15.0269 13.4797 15.2827L14.0835 16.3276ZM11.4238 18.5961C11.6796 18.7439 11.7672 19.0716 11.6194 19.3274C11.4716 19.5831 11.1439 19.6709 10.8881 19.523L9.84314 18.9192C9.72028 18.8481 9.63066 18.7312 9.59396 18.5941C9.55727 18.457 9.57651 18.3109 9.64745 18.1879C9.71852 18.065 9.83548 17.9754 9.97262 17.9387C10.1098 17.902 10.2559 17.9213 10.3788 17.9923L11.4238 18.5961ZM20.8155 16.8632C20.6677 17.119 20.34 17.2068 20.0842 17.0589C19.8284 16.9111 19.7408 16.5834 19.8885 16.3276L20.4924 15.2827C20.6403 15.0269 20.9679 14.9392 21.2237 15.087C21.4795 15.2348 21.5672 15.5625 21.4193 15.8183L20.8155 16.8632ZM23.0839 19.523C22.8282 19.6709 22.5005 19.5831 22.3527 19.3274C22.2048 19.0716 22.2926 18.7439 22.5483 18.5961L23.5933 17.9923C23.7163 17.9213 23.8623 17.902 23.9995 17.9387C24.1366 17.9754 24.2535 18.0651 24.3246 18.1879C24.3956 18.3109 24.4148 18.457 24.3782 18.5941C24.3415 18.7312 24.2518 18.8482 24.1289 18.9192L23.0839 19.523ZM17.5219 15.694C17.5219 15.9895 17.282 16.2293 16.9866 16.2293C16.6911 16.2293 16.4513 15.9895 16.4513 15.694V14.4864C16.4513 14.1909 16.6911 13.9511 16.9866 13.9511C17.282 13.9511 17.5219 14.1909 17.5219 14.4864V15.694ZM23.7186 22.9613C23.4231 22.9613 23.1833 22.7215 23.1833 22.426C23.1833 22.1306 23.4231 21.8907 23.7186 21.8907H24.9253C25.2207 21.8907 25.4606 22.1306 25.4606 22.426C25.4606 22.7215 25.2207 22.9613 24.9253 22.9613H23.7186ZM10.2545 21.8907C10.55 21.8907 10.7898 22.1306 10.7898 22.426C10.7898 22.7215 10.55 22.9613 10.2545 22.9613H9.04685C8.75145 22.9613 8.51156 22.7215 8.51156 22.426C8.51156 22.1306 8.75145 21.8907 9.04685 21.8907H10.2545ZM14.9119 27.4369C14.8647 27.4369 14.8261 27.4755 14.8261 27.5226V28.8624C14.8263 28.885 14.8355 28.9066 14.8516 28.9225C14.8676 28.9384 14.8893 28.9472 14.9119 28.9472H15.5492C15.6912 28.9472 15.8273 29.0036 15.9277 29.104C16.0281 29.2044 16.0845 29.3405 16.0845 29.4825V30.1054C16.0846 30.1188 16.0899 30.1315 16.0993 30.141C16.1087 30.1504 16.1215 30.1557 16.1348 30.1557H17.8372C17.8506 30.1557 17.8634 30.1504 17.8728 30.141C17.8823 30.1316 17.8876 30.1188 17.8876 30.1054V29.4825C17.8876 29.3405 17.944 29.2044 18.0444 29.104C18.1448 29.0036 18.2809 28.9472 18.4229 28.9472H19.0602C19.1072 28.9472 19.1459 28.9092 19.1459 28.8624V27.5226C19.1459 27.4755 19.1074 27.4369 19.0602 27.4369H14.9119Z" fill="black"/>
</g>
<defs>
<clipPath id="clip0_62_215">
<rect width="38" height="39" fill="white" transform="translate(0.593689 0.193115)"/>
</clipPath>
</defs>
</svg>
