<svg width="40" height="40" viewBox="0 0 40 40" fill="none" xmlns="http://www.w3.org/2000/svg">
<path d="M34.4913 34.168L31.3225 30.9895C32.0685 29.4306 32.2391 27.658 31.8043 25.9854C31.3695 24.3127 30.3573 22.8477 28.9466 21.8493C27.5359 20.8509 25.8177 20.3835 24.0956 20.5297C22.3736 20.6759 20.7587 21.4263 19.5365 22.6482C18.3143 23.8701 17.5635 25.4848 17.4169 27.2068C17.2703 28.9288 17.7373 30.6472 18.7354 32.0581C19.7335 33.469 21.1983 34.4816 22.8708 34.9168C24.5434 35.352 26.3159 35.1817 27.8751 34.4362L31.0528 37.6049C31.2786 37.8309 31.5467 38.0102 31.8418 38.1326C32.137 38.2549 32.4533 38.318 32.7728 38.3181C33.0923 38.3182 33.4086 38.2554 33.7038 38.1332C33.9991 38.0111 34.2673 37.832 34.4933 37.6061C34.7193 37.3803 34.8986 37.1122 35.021 36.8171C35.1433 36.5219 35.2064 36.2056 35.2065 35.8861C35.2066 35.5666 35.1438 35.2503 35.0216 34.9551C34.8995 34.6598 34.7204 34.3916 34.4945 34.1656L34.4913 34.168ZM20.7048 31.8654C19.9094 31.07 19.3678 30.0566 19.1484 28.9533C18.929 27.8501 19.0416 26.7065 19.4721 25.6673C19.9026 24.6281 20.6316 23.7399 21.5669 23.1149C22.5022 22.49 23.6018 22.1565 24.7266 22.1565C25.8515 22.1565 26.9511 22.49 27.8864 23.1149C28.8217 23.7399 29.5507 24.6281 29.9812 25.6673C30.4116 26.7065 30.5243 27.8501 30.3049 28.9533C30.0855 30.0566 29.5439 31.07 28.7485 31.8654C27.6812 32.9308 26.2347 33.5291 24.7266 33.5291C23.2186 33.5291 21.7721 32.9308 20.7048 31.8654ZM33.3391 36.456C33.1871 36.6064 32.9818 36.6907 32.768 36.6907C32.5541 36.6907 32.3489 36.6064 32.1968 36.456L29.2872 33.553C29.714 33.2169 30.0997 32.8315 30.4361 32.4049L33.3391 35.3185C33.4145 35.3934 33.4742 35.4824 33.515 35.5804C33.5558 35.6784 33.5768 35.7836 33.5768 35.8897C33.5768 35.9959 33.5558 36.101 33.515 36.1991C33.4742 36.2971 33.4145 36.3861 33.3391 36.4609V36.456Z" fill="black"/>
<path d="M19.8516 35.156H9.28915C8.64268 35.156 8.02269 34.8992 7.56557 34.4421C7.10845 33.985 6.85165 33.365 6.85165 32.7185V5.09352C6.85165 4.44706 7.10845 3.82707 7.56557 3.36995C8.02269 2.91283 8.64268 2.65602 9.28915 2.65602H23.4104C23.5798 2.65646 23.7486 2.67471 23.9141 2.71046V7.53102C23.9141 8.17749 24.171 8.79748 24.6281 9.2546C25.0852 9.71172 25.7052 9.96852 26.3516 9.96852H31.1641C31.2042 10.142 31.2252 10.3194 31.2266 10.4975V21.3435C31.2266 21.559 31.3123 21.7657 31.4646 21.918C31.617 22.0704 31.8237 22.156 32.0391 22.156C32.2546 22.156 32.4613 22.0704 32.6137 21.918C32.766 21.7657 32.8516 21.559 32.8516 21.3435V10.4975C32.8527 9.96545 32.7488 9.43845 32.5458 8.94669C32.3428 8.45493 32.0447 8.00808 31.6686 7.63177L26.2899 2.22784C25.9134 1.84725 25.4648 1.54543 24.9705 1.33995C24.4761 1.13448 23.9458 1.02946 23.4104 1.03102H9.28915C8.2121 1.03231 7.17954 1.46074 6.41795 2.22233C5.65636 2.98391 5.22794 4.01648 5.22665 5.09352V32.7185C5.22794 33.7956 5.65636 34.8281 6.41795 35.5897C7.17954 36.3513 8.2121 36.7797 9.28915 36.781H19.8516C20.0671 36.781 20.2738 36.6954 20.4262 36.543C20.5785 36.3907 20.6641 36.184 20.6641 35.9685C20.6641 35.753 20.5785 35.5464 20.4262 35.394C20.2738 35.2416 20.0671 35.156 19.8516 35.156ZM30.0843 8.34352H26.3516C26.1362 8.34352 25.9295 8.25792 25.7771 8.10555C25.6248 7.95317 25.5391 7.74651 25.5391 7.53102V3.77727L30.0843 8.34352Z" fill="black"/>
<path d="M10.9141 9.96851H19.8516C20.0671 9.96851 20.2738 9.8829 20.4262 9.73053C20.5785 9.57816 20.6641 9.37149 20.6641 9.15601C20.6641 8.94052 20.5785 8.73386 20.4262 8.58148C20.2738 8.42911 20.0671 8.34351 19.8516 8.34351H10.9141C10.6987 8.34351 10.492 8.42911 10.3396 8.58148C10.1872 8.73386 10.1016 8.94052 10.1016 9.15601C10.1016 9.37149 10.1872 9.57816 10.3396 9.73053C10.492 9.8829 10.6987 9.96851 10.9141 9.96851ZM27.1641 13.2185H13.3516C13.1362 13.2185 12.9295 13.3041 12.7771 13.4565C12.6247 13.6089 12.5391 13.8155 12.5391 14.031C12.5391 14.2465 12.6247 14.4532 12.7771 14.6055C12.9295 14.7579 13.1362 14.8435 13.3516 14.8435H27.1641C27.3796 14.8435 27.5863 14.7579 27.7387 14.6055C27.891 14.4532 27.9766 14.2465 27.9766 14.031C27.9766 13.8155 27.891 13.6089 27.7387 13.4565C27.5863 13.3041 27.3796 13.2185 27.1641 13.2185ZM27.9766 18.0935C27.9766 17.878 27.891 17.6714 27.7387 17.519C27.5863 17.3666 27.3796 17.281 27.1641 17.281H10.9141C10.6987 17.281 10.492 17.3666 10.3396 17.519C10.1872 17.6714 10.1016 17.878 10.1016 18.0935C10.1016 18.309 10.1872 18.5157 10.3396 18.668C10.492 18.8204 10.6987 18.906 10.9141 18.906H27.1641C27.3796 18.906 27.5863 18.8204 27.7387 18.668C27.891 18.5157 27.9766 18.309 27.9766 18.0935ZM16.6016 22.156C16.6016 21.9405 16.516 21.7339 16.3637 21.5815C16.2113 21.4291 16.0046 21.3435 15.7891 21.3435H10.9141C10.6987 21.3435 10.492 21.4291 10.3396 21.5815C10.1872 21.7339 10.1016 21.9405 10.1016 22.156C10.1016 22.3715 10.1872 22.5782 10.3396 22.7305C10.492 22.8829 10.6987 22.9685 10.9141 22.9685H15.7891C16.0046 22.9685 16.2113 22.8829 16.3637 22.7305C16.516 22.5782 16.6016 22.3715 16.6016 22.156ZM10.9141 27.031H14.1641C14.3796 27.031 14.5863 26.9454 14.7387 26.793C14.891 26.6407 14.9766 26.434 14.9766 26.2185C14.9766 26.003 14.891 25.7964 14.7387 25.644C14.5863 25.4916 14.3796 25.406 14.1641 25.406H10.9141C10.6987 25.406 10.492 25.4916 10.3396 25.644C10.1872 25.7964 10.1016 26.003 10.1016 26.2185C10.1016 26.434 10.1872 26.6407 10.3396 26.793C10.492 26.9454 10.6987 27.031 10.9141 27.031ZM10.9141 31.0935H14.9766C15.1921 31.0935 15.3988 31.0079 15.5512 30.8555C15.7035 30.7032 15.7891 30.4965 15.7891 30.281C15.7891 30.0655 15.7035 29.8589 15.5512 29.7065C15.3988 29.5541 15.1921 29.4685 14.9766 29.4685H10.9141C10.6987 29.4685 10.492 29.5541 10.3396 29.7065C10.1872 29.8589 10.1016 30.0655 10.1016 30.281C10.1016 30.4965 10.1872 30.7032 10.3396 30.8555C10.492 31.0079 10.6987 31.0935 10.9141 31.0935ZM24.7266 30.281C24.0802 30.281 23.4602 30.0242 23.0031 29.5671C22.546 29.11 22.2891 28.49 22.2891 27.8435C22.2891 27.628 22.2035 27.4214 22.0512 27.269C21.8988 27.1166 21.6921 27.031 21.4766 27.031C21.2612 27.031 21.0545 27.1166 20.9021 27.269C20.7497 27.4214 20.6641 27.628 20.6641 27.8435C20.6654 28.9206 21.0939 29.9531 21.8554 30.7147C22.617 31.4763 23.6496 31.9047 24.7266 31.906C24.9421 31.906 25.1488 31.8204 25.3012 31.668C25.4535 31.5157 25.5391 31.309 25.5391 31.0935C25.5391 30.878 25.4535 30.6714 25.3012 30.519C25.1488 30.3666 24.9421 30.281 24.7266 30.281Z" fill="black"/>
</svg>
