<svg width="40" height="40" viewBox="0 0 40 40" fill="none" xmlns="http://www.w3.org/2000/svg">
<path fill-rule="evenodd" clip-rule="evenodd" d="M8.43004 18.5536C9.06558 18.5536 9.5828 19.0713 9.5828 19.7067C9.5828 20.3422 9.06558 20.8595 8.43004 20.8595C7.79457 20.8595 7.27782 20.3423 7.27782 19.7067C7.27782 19.0712 7.79457 18.5536 8.43004 18.5536ZM15.8613 11.2176C16.4967 11.2176 17.0135 11.7348 17.0135 12.3703C17.0135 13.0058 16.4968 13.5235 15.8613 13.5235C15.2253 13.5235 14.7086 13.0058 14.7086 12.3703C14.7086 11.7348 15.2253 11.2176 15.8613 11.2176ZM23.3013 18.5536C23.9367 18.5536 24.454 19.0713 24.454 19.7067C24.454 20.3422 23.9367 20.8595 23.3013 20.8595C22.6657 20.8595 22.1485 20.3423 22.1485 19.7067C22.1485 19.0712 22.6657 18.5536 23.3013 18.5536ZM30.7316 11.2176C31.367 11.2176 31.8842 11.7348 31.8842 12.3703C31.8842 13.0058 31.367 13.5235 30.7316 13.5235C30.0961 13.5235 29.5788 13.0058 29.5788 12.3703C29.5789 11.7348 30.0961 11.2176 30.7316 11.2176ZM8.43004 21.9247C10.158 21.9247 11.2086 20.033 10.336 18.5733L14.7035 14.2611C15.0517 14.4755 15.4527 14.589 15.8616 14.5889C16.2705 14.5888 16.6714 14.4752 17.0196 14.2606L21.3943 18.5747C20.5238 20.0378 21.5765 21.9247 23.3013 21.9247C25.024 21.9247 26.0817 20.0403 25.2068 18.5733L29.5738 14.2611C31.0409 15.1624 32.9491 14.1055 32.9491 12.3702C32.9491 11.1476 31.9542 10.1527 30.7316 10.1527C29.0092 10.1527 27.951 12.0365 28.826 13.5036L24.4586 17.8158C24.1103 17.6014 23.7093 17.488 23.3003 17.488C22.8913 17.4881 22.4903 17.6018 22.1421 17.8163L17.7673 13.5022C18.6397 12.0395 17.5859 10.1527 15.8613 10.1527C14.1397 10.1527 13.0811 12.0343 13.9553 13.5036L9.58787 17.8158C8.12428 16.9153 6.21257 17.9688 6.21257 19.7066C6.2125 20.9294 7.20739 21.9247 8.43004 21.9247ZM28.9986 32.7055V17.959H32.4935V32.7055H28.9986ZM21.5637 32.7055V24.7497H25.0582V32.7056L21.5637 32.7055ZM14.1283 32.7055V19.2479H17.6237V32.7055H14.1283ZM6.69383 32.7055V26.3359H10.1883V32.7055H6.69383ZM11.2536 30.5257H13.063V32.7055H11.2536V30.5257ZM18.689 30.5257H20.4984V32.7055H18.689V30.5257ZM26.1235 30.5257H27.9333V32.7055H26.1235V30.5257ZM4.81957 29.4605H5.62851V25.8035C5.62851 25.5095 5.86735 25.2706 6.16094 25.2706H10.7212C11.0148 25.2706 11.2536 25.5095 11.2536 25.8035V29.4605H13.063V18.7155C13.063 18.6455 13.0767 18.5762 13.1035 18.5115C13.1302 18.4468 13.1695 18.3881 13.219 18.3386C13.2685 18.2891 13.3272 18.2499 13.3919 18.2231C13.4566 18.1963 13.5259 18.1826 13.5959 18.1826H18.1562C18.4502 18.1826 18.6891 18.4205 18.6891 18.7155V29.4604H20.4984V24.2168C20.4984 24.0756 20.5545 23.9401 20.6544 23.8403C20.7542 23.7404 20.8897 23.6843 21.0309 23.6843H25.5907C25.6606 23.6842 25.7299 23.6979 25.7946 23.7247C25.8593 23.7514 25.918 23.7906 25.9675 23.84C26.017 23.8895 26.0563 23.9482 26.083 24.0129C26.1098 24.0775 26.1236 24.1468 26.1236 24.2168V29.4604H27.9334V17.4266C27.9335 17.2853 27.9897 17.1499 28.0896 17.05C28.1895 16.9502 28.325 16.8941 28.4663 16.8941H33.0261C33.1673 16.8941 33.3028 16.9502 33.4028 17.05C33.5027 17.1499 33.5589 17.2853 33.559 17.4266V29.4604H34.3675C35.1268 29.4604 35.7448 28.8429 35.7448 28.0831V8.05805C35.7448 7.29919 35.1268 6.68072 34.3675 6.68072H4.81957C4.06071 6.68072 3.44186 7.29919 3.44186 8.05805V28.0831C3.44186 28.8429 4.06071 29.4605 4.81957 29.4605ZM36.6374 32.7055H33.5588V30.5257H34.3674C35.7138 30.5257 36.8099 29.43 36.8099 28.0831V8.05805C36.8099 6.71114 35.7138 5.61548 34.3674 5.61548H4.81957C3.47314 5.61548 2.377 6.71114 2.377 8.05805V28.0831C2.377 29.43 3.47314 30.5257 4.81957 30.5257H5.62851V32.7055H2.55001C2.4088 32.7055 2.27337 32.7616 2.17352 32.8614C2.07367 32.9613 2.01758 33.0967 2.01758 33.2379C2.01753 33.3079 2.03126 33.3772 2.05799 33.4418C2.08473 33.5065 2.12394 33.5652 2.17338 33.6147C2.22282 33.6642 2.28154 33.7034 2.34616 33.7302C2.41078 33.757 2.48005 33.7708 2.55001 33.7708H36.6373C36.7786 33.7708 36.9141 33.7147 37.014 33.6148C37.1139 33.515 37.17 33.3795 37.17 33.2382C37.17 33.0969 37.1139 32.9614 37.014 32.8615C36.9142 32.7616 36.7787 32.7055 36.6374 32.7055Z" fill="black"/>
</svg>
