<svg width="40" height="40" viewBox="0 0 40 40" fill="none" xmlns="http://www.w3.org/2000/svg">
<g clip-path="url(#clip0_62_171)">
<path d="M20.2583 25.3175C17.1219 25.3175 14.5703 22.8168 14.5703 19.7424C14.5703 16.668 17.1219 14.167 20.2583 14.167C20.703 14.167 21.2449 14.2764 21.2091 14.8457C21.1748 15.3892 20.6822 15.4251 20.2583 15.4251C17.8154 15.4251 15.8283 17.3618 15.8283 19.7424C15.8283 22.123 17.8154 24.0595 20.2583 24.0595C22.7011 24.0595 24.6882 22.1227 24.6882 19.7424C24.6902 19.0546 24.5225 18.377 24.2001 17.7695C24.16 17.6963 24.1349 17.6159 24.1261 17.5329C24.1174 17.4499 24.1253 17.366 24.1493 17.2861C24.1733 17.2062 24.213 17.1319 24.266 17.0675C24.319 17.003 24.3843 16.9498 24.4581 16.9108C24.5319 16.8719 24.6127 16.848 24.6958 16.8406C24.7789 16.8332 24.8626 16.8424 24.9422 16.8676C25.0217 16.8929 25.0954 16.9337 25.159 16.9877C25.2226 17.0417 25.2748 17.1079 25.3125 17.1823C25.7282 17.9717 25.9457 18.8503 25.9463 19.7424C25.9463 22.8168 23.3949 25.3175 20.2583 25.3175Z" fill="black"/>
<path d="M23.2582 16.3887C23.1308 16.3887 23.0021 16.3501 22.8908 16.2699C22.7233 16.1493 22.5478 16.0404 22.3656 15.9437C22.2908 15.9061 22.2243 15.854 22.1699 15.7903C22.1155 15.7267 22.0744 15.6528 22.0489 15.5731C22.0234 15.4934 22.0141 15.4094 22.0216 15.326C22.029 15.2426 22.0529 15.1616 22.0921 15.0876C22.1312 15.0136 22.1847 14.9481 22.2495 14.8951C22.3142 14.8421 22.3889 14.8025 22.4692 14.7787C22.5494 14.7548 22.6336 14.7473 22.7168 14.7564C22.8 14.7656 22.8805 14.7912 22.9537 14.8319C23.1871 14.9555 23.4135 15.0958 23.6268 15.2496C24.1099 15.5977 23.8545 16.3887 23.2582 16.3887ZM37.3655 9.81882L37.3431 7.08787C37.3417 6.92197 37.2748 6.76335 37.157 6.64653C37.0392 6.52972 36.88 6.46418 36.7141 6.46419H36.7088C36.6262 6.46485 36.5445 6.48177 36.4684 6.51399C36.3924 6.54621 36.3234 6.5931 36.2654 6.65198C36.2075 6.71086 36.1617 6.78058 36.1307 6.85715C36.0997 6.93372 36.0841 7.01565 36.0848 7.09825L36.0914 7.927C32.315 3.43005 26.2659 0.507568 20.4637 0.507568C14.464 0.507568 8.91025 3.19479 5.22884 7.87951C5.17679 7.94438 5.13813 8.01892 5.11508 8.09883C5.09203 8.17874 5.08505 8.26242 5.09456 8.34504C5.10406 8.42766 5.12985 8.50758 5.17044 8.58016C5.21103 8.65275 5.26561 8.71657 5.33102 8.76793C5.39643 8.81928 5.47138 8.85716 5.55153 8.87936C5.63167 8.90157 5.71543 8.90766 5.79794 8.89728C5.88046 8.88691 5.96009 8.86027 6.03225 8.81892C6.1044 8.77757 6.16764 8.72232 6.21831 8.65637C9.65974 4.27704 14.8521 1.76563 20.4637 1.76563C26.1042 1.76563 31.9948 4.71139 35.5016 9.19545H33.7753C33.6084 9.19545 33.4484 9.26172 33.3305 9.37969C33.2125 9.49765 33.1462 9.65765 33.1462 9.82448C33.1462 9.99131 33.2125 10.1513 33.3305 10.2693C33.4484 10.3872 33.6084 10.4535 33.7753 10.4535H36.7364C36.9393 10.4532 37.3655 10.2271 37.3655 9.81882ZM38.4546 12.7001C38.394 12.5447 38.2742 12.4197 38.1214 12.3526C37.9686 12.2855 37.7955 12.2819 37.64 12.3425C37.4846 12.4031 37.3596 12.523 37.2925 12.6757C37.2255 12.8285 37.2218 13.0016 37.2824 13.1571C38.0734 15.1865 38.4777 17.346 38.4745 19.5242C38.4745 26.4218 33.6696 33.0452 26.8232 35.8969L27.2918 35.1798C27.3379 35.1107 27.3697 35.0331 27.3856 34.9516C27.4015 34.87 27.4011 34.7861 27.3844 34.7048C27.3677 34.6234 27.335 34.5461 27.2883 34.4775C27.2415 34.4088 27.1817 34.35 27.1121 34.3046C27.0426 34.2592 26.9647 34.228 26.883 34.2128C26.8014 34.1977 26.7175 34.1988 26.6363 34.2162C26.555 34.2337 26.4781 34.267 26.4098 34.3143C26.3415 34.3616 26.2833 34.422 26.2385 34.492L24.7383 36.7873C24.5294 37.1059 24.6637 37.5535 25.011 37.707L27.5384 38.8216C28.2804 39.1471 28.7883 37.9982 28.046 37.6705L26.9707 37.1965C30.2716 35.8859 33.2639 33.7063 35.5158 30.9452C38.2747 27.5622 39.7325 23.6132 39.7325 19.5242C39.7358 17.1897 39.3024 14.8752 38.4546 12.7001C39.3026 14.8762 38.3285 12.3765 38.4546 12.7001ZM21.21 37.2676C20.9625 37.2773 20.7137 37.2824 20.4637 37.2824C10.5325 37.2824 2.45292 29.3163 2.45292 19.5242C2.45292 17.7918 3.18102 15.6251 3.87485 13.7962L4.42965 15.0237C4.76461 15.7641 5.90977 15.2436 5.57638 14.5061L4.40355 11.9113C4.25918 11.5924 3.86195 11.4512 3.54869 11.6078L1.08006 12.8441C1.00393 12.8797 0.935709 12.9302 0.87942 12.9926C0.823132 13.055 0.779918 13.1281 0.75233 13.2075C0.724742 13.2868 0.713339 13.3709 0.718796 13.4548C0.724252 13.5387 0.746456 13.6206 0.784097 13.6957C0.821739 13.7709 0.874054 13.8377 0.937953 13.8923C1.00185 13.9468 1.07604 13.9881 1.15614 14.0135C1.23623 14.0389 1.32061 14.0481 1.4043 14.0403C1.48798 14.0326 1.56926 14.0082 1.64335 13.9685L2.65641 13.4612C1.93868 15.3641 1.19517 17.6198 1.19517 19.5238C1.19517 30.0092 9.83902 38.5398 20.464 38.5398C20.7307 38.5398 20.9962 38.5341 21.26 38.5238C21.3437 38.5221 21.4261 38.5039 21.5026 38.47C21.5791 38.4361 21.648 38.3873 21.7054 38.3264C21.7628 38.2655 21.8074 38.1938 21.8367 38.1155C21.866 38.0371 21.8794 37.9537 21.8761 37.8702C21.8728 37.7866 21.8528 37.7045 21.8174 37.6287C21.7819 37.553 21.7317 37.485 21.6697 37.4289C21.6076 37.3728 21.535 37.3296 21.4561 37.3019C21.3772 37.2742 21.2935 37.2625 21.21 37.2676C21.5563 37.2544 20.9628 37.2773 21.21 37.2676Z" fill="black"/>
<path d="M21.2393 32.2707C20.6219 32.2707 18.7917 32.2779 18.5067 32.1565C18.0161 31.9477 17.616 31.4152 17.616 30.8692V29.6162C16.6686 29.3679 15.7618 28.9848 14.9235 28.4786L14.0428 29.3573C13.4899 29.9033 12.5473 29.8118 12.0167 29.3042C11.7575 29.056 10.7486 28.0257 10.5152 27.7545C10.0176 27.1762 10.0286 26.2798 10.5724 25.7369L11.4587 24.8528C10.9404 23.9697 10.5624 23.0415 10.3472 22.1235H9.1068C8.3334 22.1235 7.69431 21.4881 7.65185 20.7217C7.63203 20.3634 7.64147 18.9182 7.65185 18.5584C7.67323 17.8171 8.27301 17.105 9.05522 17.105H10.3127C10.5612 16.1601 10.9449 15.256 11.4518 14.4206L10.5728 13.5435C10.0227 12.9934 10.118 12.0467 10.6259 11.5183C10.8747 11.2598 11.9076 10.2527 12.179 10.0202C12.7577 9.52488 13.6541 9.53589 14.1976 10.0775L15.0851 10.9632C15.9705 10.4455 16.9014 10.068 17.8224 9.85292V8.56561C17.8224 7.7919 18.4602 7.155 19.2257 7.11223C19.5846 7.09241 21.0332 7.10091 21.394 7.11223C21.7711 7.12394 22.1288 7.28238 22.3909 7.55382C22.653 7.82526 22.7989 8.18828 22.7974 8.56561V9.81864C23.7448 10.0667 24.6516 10.4499 25.4899 10.9562L26.3706 10.0775C26.9222 9.5296 27.8674 9.62427 28.3967 10.131C28.6559 10.3791 29.6648 11.4091 29.8979 11.6803C30.3955 12.259 30.3844 13.155 29.8403 13.6979L28.9543 14.582C29.4727 15.4648 29.8504 16.3927 30.0658 17.311H31.3063C32.0618 17.311 32.7307 17.8699 32.8081 18.6348C32.8455 19.005 32.8238 20.5062 32.8131 20.8764C32.7917 21.618 32.1926 22.3295 31.4098 22.3295H30.1523C29.9037 23.2745 29.52 24.1787 29.0132 25.0142L29.8922 25.891C30.4426 26.4414 30.347 27.3881 29.8391 27.9165C29.5903 28.1751 28.5577 29.1818 28.286 29.4142C27.707 29.9099 26.8112 29.8995 26.2674 29.3573L25.3799 28.4716C24.4945 28.989 23.5638 29.3668 22.6426 29.5819V30.8176C22.6426 31.5593 22.0054 32.2707 21.2393 32.2707ZM18.8738 30.8192C18.8873 30.883 18.9323 31.0126 19.0707 31.0126H21.1896C21.254 30.9991 21.3846 30.9544 21.3846 30.8173V29.0661C21.3846 28.9172 21.4375 28.7731 21.5338 28.6596C21.6301 28.546 21.7636 28.4703 21.9104 28.4459C22.9826 28.2675 24.096 27.8184 25.1304 27.1475C25.2512 27.0693 25.3952 27.0348 25.5383 27.0498C25.6814 27.0648 25.8151 27.1284 25.9171 27.2299L27.1559 28.4663C27.2556 28.566 27.3893 28.5072 27.4522 28.4701L28.9594 27.0164C29.0493 26.9267 28.9949 26.7994 28.9578 26.7358L27.7645 25.5451C27.6605 25.4413 27.5961 25.3043 27.5824 25.158C27.5688 25.0117 27.6069 24.8652 27.69 24.744C28.3262 23.8159 28.8053 22.6893 29.0386 21.5712C29.0682 21.4297 29.1455 21.3027 29.2577 21.2116C29.3698 21.1205 29.5099 21.0707 29.6544 21.0708H31.3604C31.4245 21.0576 31.5551 21.0132 31.5551 20.8761V18.7606C31.5293 18.6333 31.4456 18.5688 31.3063 18.5688H29.551C29.4021 18.5688 29.258 18.516 29.1444 18.4198C29.0307 18.3235 28.9549 18.1901 28.9304 18.0432C28.7521 16.9742 28.302 15.864 27.6299 14.832C27.551 14.711 27.5162 14.5666 27.5313 14.4229C27.5463 14.2793 27.6104 14.1452 27.7126 14.0432L28.9515 12.8069C29.0493 12.7094 28.9918 12.5776 28.9553 12.515L27.4984 11.0113C27.4072 10.9207 27.2776 10.9754 27.2132 11.0125L26.0196 12.2036C25.916 12.3072 25.7794 12.3712 25.6335 12.3847C25.4876 12.3982 25.3416 12.3603 25.2207 12.2775C24.2907 11.6431 23.1609 11.1648 22.0397 10.9317C21.8981 10.9023 21.771 10.825 21.6798 10.7128C21.5885 10.6007 21.5387 10.4605 21.5387 10.3159V8.56466C21.5387 8.44357 21.4541 8.36935 21.3934 8.36935H19.2745C19.21 8.38287 19.0795 8.42753 19.0795 8.56466V10.3675C19.0794 10.5164 19.0265 10.6604 18.9302 10.774C18.8339 10.8875 18.7005 10.9633 18.5536 10.9877C17.4817 11.166 16.3683 11.6148 15.3336 12.2857C15.2129 12.3642 15.069 12.3988 14.9258 12.3838C14.7827 12.3688 14.6491 12.3051 14.5473 12.2033L13.3084 10.9673C13.209 10.8679 13.075 10.9264 13.0121 10.9632L11.505 12.4169C11.415 12.5065 11.4694 12.6339 11.5066 12.6974L12.6998 13.8885C12.8039 13.9923 12.8683 14.1292 12.8819 14.2755C12.8955 14.4219 12.8575 14.5683 12.7744 14.6896C12.1384 15.6171 11.6594 16.744 11.4257 17.8621C11.3962 18.0035 11.3188 18.1305 11.2067 18.2216C11.0945 18.3128 10.9544 18.3625 10.8099 18.3625H9.10491C9.04043 18.3763 8.90991 18.4207 8.90991 18.5581V20.6716C8.92343 20.7355 8.96841 20.8651 9.1068 20.8651H10.8621C11.011 20.8651 11.1551 20.9179 11.2687 21.0141C11.3824 21.1103 11.4582 21.2438 11.4827 21.3906C11.661 22.4594 12.1107 23.5699 12.7832 24.6022C12.862 24.7232 12.8969 24.8676 12.8818 25.0112C12.8667 25.1549 12.8027 25.289 12.7005 25.391L11.4616 26.627C11.3638 26.7248 11.4213 26.8566 11.4578 26.9192L12.9146 28.4229C13.0059 28.5138 13.1354 28.4591 13.1999 28.4213L14.3935 27.2302C14.4972 27.1267 14.6338 27.0627 14.7798 27.0492C14.9257 27.0357 15.0717 27.0736 15.1927 27.1563C16.1224 27.791 17.2518 28.2694 18.3734 28.5025C18.515 28.5319 18.6421 28.6092 18.7333 28.7214C18.8246 28.8335 18.8744 28.9737 18.8744 29.1183V30.8192H18.8738Z" fill="black"/>
</g>
<defs>
<clipPath id="clip0_62_171">
<rect width="39" height="39" fill="white" transform="translate(0.732483 0.193115)"/>
</clipPath>
</defs>
</svg>
