<svg width="40" height="40" viewBox="0 0 40 40" fill="none" xmlns="http://www.w3.org/2000/svg">
<g clip-path="url(#clip0_62_192)">
<path d="M32.1227 24.3606H32.4696C33.9698 24.3606 35.186 25.5768 35.186 27.077V27.2049M28.5058 27.271H36.1383C37.8078 27.271 39.1612 28.6244 39.1612 30.2939V30.7545C39.1612 31.3456 38.6821 31.8246 38.0912 31.8246H36.8798" stroke="black" stroke-width="1.14258" stroke-miterlimit="10" stroke-linecap="round" stroke-linejoin="round"/>
<path d="M22.1894 30.1813H33.8589C34.7874 30.1813 35.6284 30.5576 36.237 31.1662C36.8456 31.7748 37.2219 32.6157 37.2219 33.5443C37.2219 34.2016 36.6894 34.7348 36.0321 34.7348H33.4559M4.78942 25.4061C5.30815 25.611 5.80632 25.87 6.2763 26.18L18.4242 34.2001C18.9529 34.549 19.5724 34.7349 20.2058 34.7348H30.7899M24.6848 28.1483C29.7304 27.8055 33.7987 23.9154 34.4241 18.9574M30.4791 9.33229C32.6021 11.0043 34.0684 13.4745 34.4233 16.2914M13.5873 15.6944C14.492 10.8024 18.7737 7.09093 23.9297 7.07646C24.9694 7.07356 25.9743 7.22111 26.924 7.49876" stroke="black" stroke-width="1.14258" stroke-miterlimit="10" stroke-linecap="round" stroke-linejoin="round"/>
<path d="M16.8548 18.9069C16.7803 18.4903 16.7423 18.068 16.7412 17.6448C16.73 13.6585 19.9526 10.4177 23.939 10.4065C27.9254 10.3953 31.1661 13.6179 31.1773 17.6043C31.1885 21.5907 27.9659 24.8314 23.9795 24.8426C23.5226 24.8441 23.0666 24.8024 22.6175 24.7182" stroke="black" stroke-width="1.14258" stroke-miterlimit="10" stroke-linecap="round" stroke-linejoin="round"/>
<path d="M25.1726 14.9676C25.0879 14.8785 24.4418 14.2455 23.4381 14.551C22.448 14.8522 22.1448 16.0449 22.8443 16.8463C23.2068 17.2615 23.8143 17.3961 24.5991 17.6711C26.3557 18.2865 25.714 20.7632 23.9289 20.7801C23.2323 20.7867 22.9065 20.7434 22.2934 20.3448M23.9684 20.8863L23.9713 21.9113M23.9473 13.3381L23.9502 14.3631M23.9473 10.2454V7.22895M17.5568 13.935L14.9453 12.4272M30.3377 21.314L32.9835 22.8416M30.3377 13.935L33.0157 12.3888M4.68049 14.26H8.87756C10.9525 14.26 12.9421 15.0887 14.4031 16.5627L18.556 20.7506M20.4412 22.6511L23.8804 26.12C24.3405 26.5846 24.5713 27.1917 24.5713 27.798C24.5713 28.4036 24.342 29.0084 23.8842 29.4723C23.4195 29.943 22.8048 30.1807 22.1894 30.1814C21.612 30.1822 21.0331 29.9735 20.5753 29.553L13.2727 22.8423M4.68049 18.5241V26.3256C4.68049 26.7468 4.33924 27.0873 3.91878 27.0873H1.30379M4.68049 15.8581V13.6156C4.68049 13.1951 4.33924 12.8539 3.91878 12.8539H1.30379M34.2248 9.98538C35.3291 10.5517 35.7882 11.0108 36.3545 12.1151C36.9209 11.0108 37.3799 10.5517 38.4842 9.98538C37.3799 9.41904 36.9209 8.95995 36.3545 7.85569C35.7883 8.95995 35.3292 9.41904 34.2248 9.98538ZM11.8685 7.60752C12.9727 8.17386 13.4318 8.63295 13.9981 9.73721C14.5645 8.63295 15.0236 8.17386 16.1278 7.60752C15.0236 7.04118 14.5645 6.5821 13.9981 5.47783C13.4318 6.5821 12.9727 7.04118 11.8685 7.60752ZM26.9241 7.49852C28.4003 8.25559 29.0141 8.86938 29.7712 10.3457C30.5283 8.86938 31.1421 8.25559 32.6184 7.49852C31.1421 6.74145 30.5283 6.12765 29.7712 4.65137C29.0141 6.12765 28.4003 6.74137 26.9241 7.49852Z" stroke="black" stroke-width="1.14258" stroke-miterlimit="10" stroke-linecap="round" stroke-linejoin="round"/>
</g>
<defs>
<clipPath id="clip0_62_192">
<rect width="39" height="39" fill="white" transform="translate(0.732506 0.193115)"/>
</clipPath>
</defs>
</svg>
