<svg width="40" height="40" viewBox="0 0 40 40" fill="none" xmlns="http://www.w3.org/2000/svg">
<path d="M35.4668 35.5643V18.4744C35.4668 18.3127 35.4026 18.1578 35.2884 18.0435C35.1741 17.9292 35.0191 17.865 34.8575 17.865H29.9825V15.4275C29.9824 15.3175 29.9526 15.2096 29.8961 15.1152C29.8397 15.0208 29.7588 14.9434 29.6619 14.8912L22.0606 10.7962V7.50562C22.0606 7.344 21.9964 7.189 21.8821 7.07472C21.7678 6.96044 21.6128 6.89624 21.4512 6.89624H19.3184V5.06812C19.3184 4.9065 19.2542 4.7515 19.1399 4.63722C19.0256 4.52294 18.8706 4.45874 18.709 4.45874H16.8809V1.41187H15.6622V4.45874H13.834C13.6724 4.45874 13.5174 4.52294 13.4031 4.63722C13.2889 4.7515 13.2247 4.9065 13.2247 5.06812V6.89624H11.0918C10.9302 6.89624 10.7752 6.96044 10.6609 7.07472C10.5467 7.189 10.4825 7.344 10.4825 7.50562V17.567L5.23331 21.6498C5.16009 21.7068 5.10085 21.7797 5.06008 21.863C5.01932 21.9463 4.99812 22.0379 4.99809 22.1306V35.5637C4.0777 35.9496 3.17195 36.3695 2.28271 36.8226L2.83846 37.9073C3.81762 37.4053 4.81769 36.9452 5.83598 36.5283C7.78156 35.7396 9.78843 35.1115 11.8365 34.6502C13.8095 34.2021 15.8153 33.9133 17.8346 33.7867C19.0334 33.7088 20.2354 33.6909 21.436 33.7331C21.8345 33.7429 22.2334 33.7599 22.6328 33.7843L22.7071 32.5656C22.296 32.5401 21.8844 32.5224 21.4725 32.5125C20.2333 32.4695 18.9927 32.488 17.7554 32.568C15.7177 32.6976 13.6935 32.9872 11.7012 33.4339V8.11499H20.8418V16.0369H22.0606V12.182L28.7637 15.7931V28.2244H29.9825V19.0837H34.2481V35.0829C33.9081 34.9543 33.5692 34.8178 33.2298 34.6996L32.8289 35.8507C33.4291 36.0597 34.0342 36.2876 34.6271 36.5277C35.6259 36.9354 36.6381 37.3997 37.6265 37.9073L38.1822 36.8226C37.2932 36.3693 36.3874 35.9495 35.4668 35.5643ZM10.4825 33.7289C9.0363 34.0983 7.61215 34.5491 6.21684 35.0792V22.4286L10.4825 19.1106V33.7289ZM18.0997 6.89624H14.4434V5.67749H18.0997V6.89624Z" fill="black"/>
<path d="M26.9435 29.5344C26.8437 29.4074 26.6975 29.3252 26.537 29.3059C26.3767 29.2885 26.2158 29.3337 26.0879 29.4321L25.609 29.8087L24.8369 28.827C26.0802 27.646 26.8205 26.0313 26.9039 24.3185C26.9872 22.6058 26.4072 20.9268 25.2844 19.6307C24.1616 18.3346 22.5824 17.5212 20.8753 17.3595C19.1681 17.1979 17.4643 17.7005 16.1182 18.7628C14.7721 19.8251 13.8873 21.3654 13.6477 23.0633C13.4081 24.7613 13.8322 26.4863 14.8318 27.8796C15.8314 29.2729 17.3295 30.2273 19.0148 30.5444C20.7 30.8615 22.4426 30.5168 23.8802 29.582L24.651 30.5625L24.1721 30.9391C24.0458 31.0389 23.9641 31.1847 23.9449 31.3445C23.9257 31.5044 23.9706 31.6653 24.0697 31.7922L28.59 37.5404C28.69 37.6666 28.8358 37.7482 28.9956 37.7672C29.1555 37.7863 29.3163 37.7413 29.4432 37.6422L31.359 36.1358C31.4853 36.036 31.567 35.8902 31.5862 35.7304C31.6054 35.5705 31.5605 35.4096 31.4614 35.2827L26.9435 29.5344ZM23.623 28.27C22.7704 28.9405 21.7381 29.3431 20.6566 29.427C19.5751 29.5108 18.4931 29.272 17.5473 28.7409C16.6016 28.2098 15.8345 27.4101 15.3432 26.443C14.8519 25.476 14.6584 24.3849 14.7872 23.3079C14.916 22.2309 15.3612 21.2162 16.0667 20.3922C16.7721 19.5682 17.706 18.972 18.7504 18.6788C19.7947 18.3856 20.9025 18.4086 21.9337 18.745C22.9649 19.0814 23.8733 19.7161 24.5438 20.5687C25.4414 21.7127 25.8485 23.166 25.6759 24.6098C25.5033 26.0535 24.765 27.3699 23.623 28.27ZM29.1683 36.3101L25.4012 31.5204L26.3591 30.7666L30.1263 35.5569L29.1683 36.3101Z" fill="black"/>
<path d="M19.7754 22.1306H20.6895C20.8708 22.113 21.0518 22.1668 21.194 22.2806C21.3363 22.3944 21.4285 22.5592 21.4512 22.74H22.6699C22.6512 22.2624 22.4522 21.8097 22.1129 21.4731C21.7737 21.1365 21.3195 20.9409 20.8418 20.9259V20.3025H19.623V20.9259C19.1454 20.9409 18.6911 21.1365 18.3519 21.4731C18.0127 21.8097 17.8136 22.2624 17.7949 22.74C17.8165 23.2446 18.0369 23.7201 18.408 24.0627C18.7791 24.4052 19.2707 24.5869 19.7754 24.5681H20.6895C20.7808 24.5476 20.8757 24.5478 20.967 24.5689C21.0582 24.5899 21.1436 24.6312 21.2168 24.6898C21.2899 24.7483 21.3489 24.8225 21.3895 24.9069C21.4301 24.9913 21.4512 25.0838 21.4512 25.1775C21.4512 25.2712 21.4301 25.3636 21.3895 25.4481C21.3489 25.5325 21.2899 25.6067 21.2168 25.6652C21.1436 25.7237 21.0582 25.7651 20.967 25.7861C20.8757 25.8072 20.7808 25.8074 20.6895 25.7869H19.7754C19.5941 25.8045 19.413 25.7506 19.2708 25.6368C19.1286 25.523 19.0363 25.3582 19.0137 25.1775H17.7949C17.8136 25.655 18.0127 26.1077 18.3519 26.4444C18.6911 26.781 19.1454 26.9766 19.623 26.9916V27.615H20.8418V26.9916C21.3195 26.9766 21.7737 26.781 22.1129 26.4444C22.4522 26.1077 22.6512 25.655 22.6699 25.1775C22.6484 24.6729 22.428 24.1974 22.0569 23.8548C21.6858 23.5123 21.1941 23.3305 20.6895 23.3494H19.7754C19.684 23.3699 19.5892 23.3697 19.4979 23.3486C19.4066 23.3276 19.3212 23.2862 19.2481 23.2277C19.1749 23.1692 19.1159 23.095 19.0753 23.0106C19.0347 22.9261 19.0137 22.8337 19.0137 22.74C19.0137 22.6463 19.0347 22.5538 19.0753 22.4694C19.1159 22.385 19.1749 22.3108 19.2481 22.2523C19.3212 22.1937 19.4066 22.1524 19.4979 22.1314C19.5892 22.1103 19.684 22.1101 19.7754 22.1306Z" fill="black"/>
</svg>
