<svg width="94" height="21" viewBox="0 0 94 21" fill="none" xmlns="http://www.w3.org/2000/svg">
<path d="M8.8074 16.4202L13.2679 0.112329H17.075L12.2451 16.5339C11.5348 19.1193 10.6541 20.1705 8.75058 20.1705C6.93227 20.1705 5.99471 19.1193 5.31285 16.5907L0.454575 0.112329H4.31847L8.8074 16.4202Z" fill="#32E0C5"/>
<path d="M31.3408 5.42518V3.29436H34.7502V20H31.3408V17.8408C30.176 19.375 28.2156 20.3409 25.8575 20.3409C21.0845 20.3409 17.3626 16.6759 17.3626 11.6472C17.3626 6.64685 21.0845 2.95342 25.8575 2.95342C28.102 2.95342 30.0623 3.83417 31.3408 5.42518ZM26.1985 16.9884C29.1816 16.9884 31.4261 14.7156 31.4261 11.5904C31.4261 8.49356 29.1816 6.22069 26.1985 6.22069C23.2437 6.22069 20.9992 8.49356 20.9992 11.5904C20.9992 14.7156 23.2437 16.9884 26.1985 16.9884ZM41.9945 20H38.4147V0.112329H41.9945V20ZM49.2637 20H45.6839V0.112329H49.2637V20ZM63.4368 13.295V3.29436H67.0166V20H63.5788V18.3806C62.5845 19.6591 60.9366 20.3409 59.0899 20.3409C55.3681 20.3409 52.7827 17.8124 52.7827 13.9201V3.29436H56.3909V13.3234C56.3909 15.6247 57.7262 16.9884 59.8002 16.9884C61.9594 16.9884 63.4368 15.5395 63.4368 13.295ZM87.6145 2.95342C91.1375 2.95342 93.5524 5.33995 93.5524 9.03337V20H89.9726V9.65841C89.9726 7.58441 88.8362 6.30592 87.0463 6.30592C85.0575 6.30592 83.9211 7.58441 83.9211 9.65841V20H80.3413V9.65841C80.3413 7.47077 79.148 6.30592 77.3297 6.30592C75.3694 6.30592 74.2614 7.58441 74.2614 9.65841V20H70.71V3.29436H74.0057V4.94219C74.858 3.69211 76.3638 2.95342 78.1821 2.95342C80.3697 2.95342 81.8471 3.86258 82.6994 5.25471C83.6938 3.94781 85.2848 2.95342 87.6145 2.95342Z" fill="#D9D9D9"/>
</svg>
